/* XPM */
static const char * back_xpm[] = {
"22 22 116 2",
"  	c None",
". 	c #84989C",
"+ 	c #9DA696",
"@ 	c #9EA795",
"# 	c #9FA896",
"$ 	c #9FA897",
"% 	c #A0A997",
"& 	c #A0A998",
"* 	c #9EA999",
"= 	c #82959F",
"- 	c #C7CCC2",
"; 	c #F9F9F8",
"> 	c #F9F9F9",
", 	c #FAFAF9",
"' 	c #FAFAFA",
") 	c #C8CFC9",
"! 	c #8AA4BC",
"~ 	c #CFD5D0",
"{ 	c #D0D6D0",
"] 	c #CED4D0",
"^ 	c #819CBA",
"/ 	c #3667A5",
"( 	c #74A0D0",
"_ 	c #729FCF",
": 	c #719CCB",
"< 	c #709DCE",
"[ 	c #3666A5",
"} 	c #79A4D1",
"| 	c #719CCA",
"1 	c #5A646A",
"2 	c #75A1D0",
"3 	c #7FA8D3",
"4 	c #719BC9",
"5 	c #616B71",
"6 	c #555753",
"7 	c #7BA5D2",
"8 	c #84ABD5",
"9 	c #709AC7",
"0 	c #61696F",
"a 	c #A0A2A2",
"b 	c #80A8D3",
"c 	c #89AFD7",
"d 	c #709AC6",
"e 	c #60676C",
"f 	c #B1B3B2",
"g 	c #F5F5F5",
"h 	c #676965",
"i 	c #636561",
"j 	c #606563",
"k 	c #6A7782",
"l 	c #38659F",
"m 	c #8FB3D9",
"n 	c #7099C3",
"o 	c #5F666A",
"p 	c #B3B4B4",
"q 	c #F3F3F3",
"r 	c #EDEDED",
"s 	c #F2F2F2",
"t 	c #F6F6F6",
"u 	c #F8F8F8",
"v 	c #FCFCFC",
"w 	c #FEFEFE",
"x 	c #FFFFFF",
"y 	c #8B8D8C",
"z 	c #4D5F71",
"A 	c #95B7DB",
"B 	c #5D6A72",
"C 	c #EBEBEB",
"D 	c #E4E4E4",
"E 	c #E6E6E6",
"F 	c #EAEAEA",
"G 	c #EEEEEE",
"H 	c #F1F1F1",
"I 	c #C3C3C3",
"J 	c #555B5B",
"K 	c #9ABADD",
"L 	c #6E97C1",
"M 	c #5A6062",
"N 	c #A6A7A6",
"O 	c #F4F4F4",
"P 	c #C6C6C6",
"Q 	c #565B5A",
"R 	c #A0BEDF",
"S 	c #668CB4",
"T 	c #5B6163",
"U 	c #A3A5A4",
"V 	c #565854",
"W 	c #5C5F5C",
"X 	c #818281",
"Y 	c #A5C2E1",
"Z 	c #678DB5",
"` 	c #5A6163",
" .	c #929493",
"..	c #5A7EA4",
"+.	c #567595",
"@.	c #5B5F5C",
"#.	c #ABC6E2",
"$.	c #678EB7",
"%.	c #5A6265",
"&.	c #8191A2",
"*.	c #B0CAE4",
"=.	c #688FB8",
"-.	c #575F64",
";.	c #ACC5DF",
">.	c #3C6293",
",.	c #3666A4",
"'.	c #B6CDE6",
").	c #B4CCE5",
"!.	c #3566A5",
"~.	c #B0C9E3",
"{.	c #BCD1E8",
"].	c #ADC6E2",
"^.	c #305A8F",
"/.	c #3565A3",
"(.	c #3465A4",
"_.	c #2E5789",
"                                            ",
"  . + @ @ @ @ @ @ @ @ @ @ @ @ # $ % & * =   ",
"  - ; > > > > > , , , , , , , , ' ' ' , )   ",
"  ! ~ { { { { { { { { { { { { { { { { ] ^   ",
"  / ( _ _ _ _ _ : _ _ _ _ _ _ _ _ _ _ < [   ",
"  / } _ _ _ _ | 1 _ _ _ _ _ _ _ _ _ _ 2 [   ",
"  / 3 _ _ _ 4 5 6 _ _ _ _ _ _ _ _ _ _ 7 [   ",
"  / 8 _ _ 9 0 a 6 _ _ _ _ _ _ _ _ _ _ b [   ",
"  / c _ d e f g h i i i i i i i i i j k l   ",
"  / m n o p q r s q q g t u ' v w x t y z   ",
"  / A B h g C D E E E F G H g > v w w I J   ",
"  / K L M N q O O q q g t u ' v w x w P Q   ",
"  / R _ S T U O V 6 6 6 6 6 6 6 6 6 W X Q   ",
"  / Y _ _ Z `  .6 ..................+.@.6   ",
"  / #._ _ _ $.%.6 _ _ _ _ _ _ _ _ _ _ &.6   ",
"  / *._ _ _ _ =.-._ _ _ _ _ _ _ _ _ _ ;.>.  ",
"  ,.'._ _ _ _ _ | _ _ _ _ _ _ _ _ _ _ ).!.  ",
"  ,.~.{.{.{.{.{.{.{.{.{.{.{.{.{.{.{.{.].,.  ",
"  ^./.(.(.(.(.(.(.(.(.(.(.(.(.(.(.(.(./._.  ",
"                                            ",
"                                            ",
"                                            "};
