/* XPM */
static const char * glasscoder_16x16_xpm[] = {
"16 16 137 2",
"  	c None",
". 	c #D5D9D2",
"+ 	c #F9F9F8",
"@ 	c #FFFFFF",
"# 	c #FEFEFE",
"$ 	c #FDFDFD",
"% 	c #FDFDFC",
"& 	c #FCFCFC",
"* 	c #FBFBFB",
"= 	c #FBFBFA",
"- 	c #FAFAF9",
"; 	c #F9F9F9",
"> 	c #F8F8F7",
", 	c #ECEDEB",
"' 	c #D0D2CC",
") 	c #D3D7CF",
"! 	c #EEEEEC",
"~ 	c #D2D2D0",
"{ 	c #737471",
"] 	c #F6F6F5",
"^ 	c #CBCFC7",
"/ 	c #838482",
"( 	c #4C4E4B",
"_ 	c #C9CDC5",
": 	c #D1D5CD",
"< 	c #5F605D",
"[ 	c #585A56",
"} 	c #F5F5F4",
"| 	c #C8CBC4",
"1 	c #D0D4CC",
"2 	c #60615D",
"3 	c #5E605D",
"4 	c #636561",
"5 	c #EDEDEB",
"6 	c #F3F3F1",
"7 	c #C6CAC2",
"8 	c #CED2CA",
"9 	c #5D5F5A",
"0 	c #C4C5C4",
"a 	c #C2C3C2",
"b 	c #575954",
"c 	c #6F716D",
"d 	c #E9E9E7",
"e 	c #EFEFEC",
"f 	c #C5C8C1",
"g 	c #CDD0C9",
"h 	c #4F504D",
"i 	c #A3A7A0",
"j 	c #A1A49E",
"k 	c #494A47",
"l 	c #ECECEA",
"m 	c #EBEBE9",
"n 	c #7A7D78",
"o 	c #E6E6E2",
"p 	c #EBEBE8",
"q 	c #C3C6BF",
"r 	c #FAFAFA",
"s 	c #6E716B",
"t 	c #40423F",
"u 	c #3E403D",
"v 	c #6D6F6A",
"w 	c #E9E9E6",
"x 	c #E8E8E5",
"y 	c #797B75",
"z 	c #626561",
"A 	c #E2E2DE",
"B 	c #E6E6E3",
"C 	c #BFC2BB",
"D 	c #CACDC6",
"E 	c #92948F",
"F 	c #E5E5E2",
"G 	c #E4E4E0",
"H 	c #61635E",
"I 	c #5B5D58",
"J 	c #DEDEDA",
"K 	c #E1E1DD",
"L 	c #B4B7AF",
"M 	c #E7E7E4",
"N 	c #9DA09A",
"O 	c #E1E1DE",
"P 	c #E0E0DC",
"Q 	c #535551",
"R 	c #4D4F4B",
"S 	c #DBDBD6",
"T 	c #DCDCD7",
"U 	c #A8ACA3",
"V 	c #F3F3F2",
"W 	c #E3E3E0",
"X 	c #C6C7C3",
"Y 	c #A9ABA5",
"Z 	c #DEDED9",
"` 	c #DDDDD8",
" .	c #9B9D98",
"..	c #444543",
"+.	c #424341",
"@.	c #9A9A97",
"#.	c #D7D7D2",
"$.	c #D6D6D0",
"%.	c #9CA196",
"&.	c #F0F0EE",
"*.	c #DFDFDB",
"=.	c #E9EAE8",
"-.	c #C7C9C4",
";.	c #E8E9E6",
">.	c #DADAD5",
",.	c #D9D9D4",
"'.	c #E7E8E6",
").	c #E6E7E5",
"!.	c #D3D3CE",
"~.	c #D2D2CC",
"{.	c #91958A",
"].	c #F6F6F4",
"^.	c #D6D6D1",
"/.	c #D5D5D0",
"(.	c #F4F4F2",
"_.	c #D1D1CB",
":.	c #CDCDC7",
"<.	c #878C80",
"[.	c #C1C4BF",
"}.	c #D9DBD6",
"|.	c #E4E4E1",
"1.	c #E3E3DF",
"2.	c #E0E0DD",
"3.	c #D9D9D3",
"4.	c #D3D3CD",
"5.	c #A7AAA1",
"6.	c #8B9084",
"7.	c #B3B6AD",
"8.	c #ABAFA6",
"9.	c #A6AAA1",
"0.	c #A2A69C",
"a.	c #9DA197",
"b.	c #989C92",
"c.	c #93988D",
"d.	c #8F9388",
"e.	c #8A8F83",
"f.	c #868B7F",
". + @ @ @ # $ % & * = - ; > , ' ",
") @ ! ~ { { ~ ! ! ~ { { ~ ! ] ^ ",
") @ ! / ( ( / ! ! / ( ( / ! ] _ ",
": # ! < [ [ < ! ! < [ [ < ! } | ",
"1 $ ! 2 3 3 2 ! ! 4 4 4 4 5 6 7 ",
"8 & ! 9 0 a b ! ! c c c c d e f ",
"g * ! h i j k l m n n n n o p q ",
"^ r ! s t u v w x y z z y A B C ",
"D + p E E E E F G H 0 a I J K L ",
"| ] M j N N j O P Q i j R S T U ",
"7 V W X Y Y X Z `  ...+.@.#.$.%.",
"f &.*.=.-.-.;.>.,.'.-.-.).!.~.{.",
"q m T K ].} J ^./.S (.(.,._.:.<.",
"[.}.|.1.2.Z S 3./.4._._._.:.5.6.",
"  7.8.9.0.a.b.c.d.e.f.f.f.<.6.  ",
"                                "};
