/* XPM */
static const char * minussign_xpm[] = {
"22 22 69 1",
" 	c None",
".	c #3565A4",
"+	c #3363A2",
"@	c #3161A0",
"#	c #30609E",
"$	c #2F5F9D",
"%	c #2E5D9C",
"&	c #2D5C9B",
"*	c #2D5B99",
"=	c #2C5A98",
"-	c #2B5997",
";	c #2A5795",
">	c #295694",
",	c #285593",
"'	c #285491",
")	c #2A5592",
"!	c #3162A0",
"~	c #7F9EC6",
"{	c #88A5CA",
"]	c #87A4CA",
"^	c #86A3C9",
"/	c #84A2C9",
"(	c #83A2C8",
"_	c #82A0C7",
":	c #80A0C7",
"<	c #7F9DC5",
"[	c #7D9DC5",
"}	c #7B9BC4",
"|	c #6F92BE",
"1	c #25508D",
"2	c #2F5E9D",
"3	c #7798C2",
"4	c #3B6AA7",
"5	c #3869A6",
"6	c #3768A5",
"7	c #3667A4",
"8	c #3566A4",
"9	c #3667A5",
"0	c #3768A6",
"a	c #396AA7",
"b	c #396AA8",
"c	c #406FAB",
"d	c #234D8B",
"e	c #2D5C9A",
"f	c #4271AC",
"g	c #4573AD",
"h	c #4674AE",
"i	c #4574AE",
"j	c #4674AF",
"k	c #4575AF",
"l	c #4574B0",
"m	c #4675B0",
"n	c #4776B0",
"o	c #4675B1",
"p	c #4272AD",
"q	c #224B88",
"r	c #2B5B98",
"s	c #2B5896",
"t	c #285592",
"u	c #275391",
"v	c #265290",
"w	c #25518E",
"x	c #24508D",
"y	c #234E8C",
"z	c #224D8B",
"A	c #224C89",
"B	c #214B88",
"C	c #214A87",
"D	c #244D8A",
"                      ",
"                      ",
"                      ",
"                      ",
"                      ",
"                      ",
"                      ",
"                      ",
"   .+@#$%&*=-;>,')    ",
"   !~{]^/(_:~<[}|1    ",
"   23456789605abcd    ",
"   efghijjklmnmopq    ",
"   rs;>tuvwxyzABCD    ",
"                      ",
"                      ",
"                      ",
"                      ",
"                      ",
"                      ",
"                      ",
"                      ",
"                      "};
