/* XPM */
static const char * plussign_xpm[] = {
"22 22 105 2",
"  	c None",
". 	c #3B6BA8",
"+ 	c #3666A5",
"@ 	c #3465A4",
"# 	c #3566A5",
"$ 	c #AAC1DC",
"% 	c #B0C5DE",
"& 	c #8AA9CE",
"* 	c #3364A2",
"= 	c #ABC2DC",
"- 	c #7B9EC7",
"; 	c #86A6CC",
"> 	c #30609F",
", 	c #3262A1",
"' 	c #A2BAD8",
") 	c #6D92C0",
"! 	c #799BC5",
"~ 	c #2F5E9C",
"{ 	c #9AB3D3",
"] 	c #5E87BA",
"^ 	c #6C91BF",
"/ 	c #2D5B99",
"( 	c #3565A4",
"_ 	c #3363A2",
": 	c #3161A0",
"< 	c #30609E",
"[ 	c #2F5F9D",
"} 	c #3B67A3",
"| 	c #8FABCE",
"1 	c #507BB1",
"2 	c #5F86B9",
"3 	c #315D9B",
"4 	c #2A5795",
"5 	c #295694",
"6 	c #285593",
"7 	c #285491",
"8 	c #2A5592",
"9 	c #3162A0",
"0 	c #82A1C8",
"a 	c #8AA7CB",
"b 	c #89A6CA",
"c 	c #86A4CA",
"d 	c #658ABA",
"e 	c #416FAA",
"f 	c #4975AE",
"g 	c #7D9CC5",
"h 	c #84A2C8",
"i 	c #83A2C8",
"j 	c #7597C0",
"k 	c #25508D",
"l 	c #2F5E9D",
"m 	c #7A9BC4",
"n 	c #3B6AA7",
"o 	c #3969A7",
"p 	c #3868A6",
"q 	c #3667A4",
"r 	c #3667A5",
"s 	c #3768A6",
"t 	c #3A6AA8",
"u 	c #3A6AA9",
"v 	c #4C79B1",
"w 	c #234D8B",
"x 	c #2D5C9A",
"y 	c #4775AE",
"z 	c #4D7AB1",
"A 	c #4E7AB2",
"B 	c #4674AF",
"C 	c #3C6EAB",
"D 	c #4775B0",
"E 	c #517DB4",
"F 	c #527EB5",
"G 	c #537FB6",
"H 	c #4D7BB2",
"I 	c #224B88",
"J 	c #2B5B98",
"K 	c #2B5896",
"L 	c #285592",
"M 	c #2B5796",
"N 	c #80A2CB",
"O 	c #4576B1",
"P 	c #5783BA",
"Q 	c #285391",
"R 	c #224D8B",
"S 	c #224C89",
"T 	c #214B88",
"U 	c #214A87",
"V 	c #244D8A",
"W 	c #25518E",
"X 	c #8DACD1",
"Y 	c #4D7EB9",
"Z 	c #5E8BBF",
"` 	c #214C89",
" .	c #234E8C",
"..	c #92B1D5",
"+.	c #5486BF",
"@.	c #6592C4",
"#.	c #204A87",
"$.	c #96B6DA",
"%.	c #5C8EC4",
"&.	c #6C98CB",
"*.	c #204B88",
"=.	c #8FB0D7",
"-.	c #719ECF",
";.	c #6996C9",
">.	c #1F4172",
"                                            ",
"                                            ",
"                                            ",
"                . + @ + .                   ",
"                # $ % & *                   ",
"                @ = - ; >                   ",
"                , ' ) ! ~                   ",
"                > { ] ^ /                   ",
"      ( _ : < [ } | 1 2 3 4 5 6 7 8         ",
"      9 0 a a b c d e f g h i 0 j k         ",
"      l m n o p q @ # r s o t u v w         ",
"      x y v z z A B C D E F F G H I         ",
"      J K 4 5 L M N O P Q R S T U V         ",
"                W X Y Z `                   ",
"                 ...+.@.#.                  ",
"                ` $.%.&.#.                  ",
"                *.=.-.;.*.                  ",
"                >.*.#.*.>.                  ",
"                                            ",
"                                            ",
"                                            ",
"                                            "};
